<svg xmlns="http://www.w3.org/2000/svg" xmlns:xlink="http://www.w3.org/1999/xlink" width="1353.16" height="151.386" viewBox="0 0 1353.16 151.386">
  <defs>
    <clipPath id="clip-path">
      <rect id="Rectangle_38" data-name="Rectangle 38" width="1353.16" height="151.386" fill="none"/>
    </clipPath>
  </defs>
  <g id="Group_67" data-name="Group 67" clip-path="url(#clip-path)">
    <path id="Path_15" data-name="Path 15" d="M54.1,1.07H69.706V114.609c0,23.093-15.182,36.777-35.281,36.777-16.036,0-30.149-11.119-34.425-29.294H16.464a18.671,18.671,0,0,0,18.175,13.685c10.9,0,19.458-8.98,19.458-23.734Z"/>
    <path id="Path_16" data-name="Path 16" d="M91.943,75.693C91.943,33.143,126.8,0,167.636,0s75.692,33.142,75.692,75.692a75.693,75.693,0,1,1-151.385,0m15.609,0c0,34,28.011,60.084,60.084,60.084s60.083-26.086,60.083-60.084c0-32.286-26.3-60.083-60.083-60.083s-60.084,27.8-60.084,60.083"/>
    <path id="Path_17" data-name="Path 17" d="M265.978,150.744V1.069H1348.929V16.678H293.774c-10.477,0-12.4,5.773-12.4,10.049V53.669c0,5.773,1.924,11.974,10.477,11.974H1343.156V81.252H291.85c-8.553,0-10.477,6.415-10.477,12.188v31.646c0,4.276,1.924,10.049,12.4,10.049H1348.929v15.609Z"/>
  </g>
</svg>
