<svg class="liese" xmlns="http://www.w3.org/2000/svg" width="313.757" height="151.385" viewBox="0 0 313.757 151.385">
  <g id="Group_101" data-name="Group 101" transform="translate(-9211.755 -3736.284)">
    <path id="Path_13" data-name="Path 13" d="M1609.563,117.816h16.464c3.207,9.836,13.043,17.961,23.52,17.961,16.251,0,27.37-11.974,27.37-26.086,0-14.754-11.119-26.086-26.942-26.086a41.11,41.11,0,0,1-41.054-41.268A41.969,41.969,0,0,1,1650.4,0c21.382,0,38.274,14.753,41.481,34h-16.678c-3.635-10.478-13.257-18.389-24.376-18.389a26.512,26.512,0,0,0-26.3,26.727c0,13.685,11.761,25.873,26.3,25.873a41.589,41.589,0,0,1,.428,83.176c-21.6,0-38.916-14.112-41.7-33.57" transform="translate(7767 3736.283)"/>
    <path id="Path_14" data-name="Path 14" d="M1716.817,150.744V1.069h41.695V16.678h-13.9c-10.477,0-12.4,5.773-12.4,10.049V53.669c0,5.773,1.924,11.974,10.477,11.974h10.05V81.252h-10.05c-8.553,0-10.477,6.415-10.477,12.188v31.646c0,4.276,1.924,10.049,12.4,10.049h13.9v15.609Z" transform="translate(7767 3736.283)"/>
    <path id="Path_21" data-name="Path 21" d="M1486.664,135.135v15.609h-41.909V1.07h15.4V125.086c0,4.277,1.925,10.049,12.4,10.049Z" transform="translate(7767 3736.283)"/>
    <rect id="Rectangle_37" data-name="Rectangle 37" width="15.395" height="149.675" transform="translate(9272.564 3737.353)"/>
    <path id="Path_22" data-name="Path 22" d="M1553.651,150.744V1.069h41.695V16.678h-13.9c-10.477,0-12.4,5.773-12.4,10.049V53.669c0,5.773,1.924,11.974,10.477,11.974h10.05V81.252h-10.05c-8.553,0-10.477,6.415-10.477,12.188v31.646c0,4.276,1.924,10.049,12.4,10.049h13.9v15.609Z" transform="translate(7767 3736.283)"/>
  </g>
</svg>
