<svg id="pug" xmlns="http://www.w3.org/2000/svg" width="348.957" height="151.386" viewBox="0 0 348.957 151.386">
  <g id="Group_100" data-name="Group 100" transform="translate(-8842.635 -3736.283)">
    <path id="Path_18" data-name="Path 18" d="M1075.635,150.744V1.069h35.922c25.017,0,40.412,17.533,40.412,41.268s-15.822,41.054-40.412,41.054h-8.766a11.41,11.41,0,0,0-11.761,11.545v55.808ZM1110.488,68c15.609,0,26.086-11.546,26.086-25.658,0-14.968-11.118-25.873-26.3-25.873h-8.98c-7.27,0-10.264,4.7-10.264,9.622v34c0,3.635,2.994,7.911,10.905,7.911Z" transform="translate(7767 3736.283)"/>
    <path id="Path_19" data-name="Path 19" d="M1175.276,115.892V1.07h15.609V115.037c0,12.615,9.194,19.671,19.671,19.671s19.672-7.056,19.672-19.671V1.07h15.609V115.892c0,20.526-16.037,35.28-35.281,35.28s-35.28-14.754-35.28-35.28" transform="translate(7767 3736.283)"/>
    <path id="Path_20" data-name="Path 20" d="M1365.15,78.473h59.442c-1.924,43.191-35.28,72.913-76.12,72.913-42.337,0-75.693-34.852-75.693-75.479,0-41.481,34-75.907,75.693-75.907a73.621,73.621,0,0,1,36.991,9.836l-8.339,13.257a62.934,62.934,0,0,0-28.652-7.483,60.083,60.083,0,1,0,0,120.167c27.156,0,54.311-19.031,54.311-34.639,0-4.276-2.566-7.057-7.912-7.057H1365.15Z" transform="translate(7767 3736.283)"/>
  </g>
</svg>
